{
    "asset" : {
        "copyright" : "Design Quset Limited",
        "generator" : "Khronos glTF Blender I/O v1.5.17",
        "version" : "2.0"
    },
    "scene" : 0,
    "scenes" : [
        {
            "name" : "Scene",
            "nodes" : [
                0
            ]
        }
    ],
    "nodes" : [
        {
            "mesh" : 0,
            "name" : "{.001"
        }
    ],
    "materials" : [
        {
            "doubleSided" : true,
            "name" : "SVGMat.005",
            "pbrMetallicRoughness" : {
                "baseColorFactor" : [
                    1,
                    1,
                    1,
                    1
                ],
                "metallicFactor" : 0,
                "roughnessFactor" : 0.4000000059604645
            }
        }
    ],
    "meshes" : [
        {
            "name" : "{.004",
            "primitives" : [
                {
                    "attributes" : {
                        "POSITION" : 0,
                        "NORMAL" : 1,
                        "TEXCOORD_0" : 2
                    },
                    "indices" : 3,
                    "material" : 0
                }
            ]
        }
    ],
    "accessors" : [
        {
            "bufferView" : 0,
            "componentType" : 5126,
            "count" : 717,
            "max" : [
                0.8103803992271423,
                0.5,
                2.6963062286376953
            ],
            "min" : [
                -0.8019573092460632,
                -0.5000017881393433,
                -2.6963062286376953
            ],
            "type" : "VEC3"
        },
        {
            "bufferView" : 1,
            "componentType" : 5126,
            "count" : 717,
            "type" : "VEC3"
        },
        {
            "bufferView" : 2,
            "componentType" : 5126,
            "count" : 717,
            "type" : "VEC2"
        },
        {
            "bufferView" : 3,
            "componentType" : 5123,
            "count" : 4056,
            "type" : "SCALAR"
        }
    ],
    "bufferViews" : [
        {
            "buffer" : 0,
            "byteLength" : 8604,
            "byteOffset" : 0
        },
        {
            "buffer" : 0,
            "byteLength" : 8604,
            "byteOffset" : 8604
        },
        {
            "buffer" : 0,
            "byteLength" : 5736,
            "byteOffset" : 17208
        },
        {
            "buffer" : 0,
            "byteLength" : 8112,
            "byteOffset" : 22944
        }
    ],
    "buffers" : [
        {
            "byteLength" : 31056,
            "uri" : "{.bin"
        }
    ]
}
